<svg width="100" height="101" viewBox="0 0 100 101" fill="none" xmlns="http://www.w3.org/2000/svg">
<g clip-path="url(#clip0_49_188)">
<path d="M76.5625 0.695312H23.4375C10.4933 0.695312 0 11.1886 0 24.1328V77.2578C0 90.202 10.4933 100.695 23.4375 100.695H76.5625C89.5067 100.695 100 90.202 100 77.2578V24.1328C100 11.1886 89.5067 0.695312 76.5625 0.695312Z" fill="#F4F2ED"/>
<path d="M16.2641 80.0074H28.693V49.8226L10.9375 36.5062V74.6808C10.9375 77.6281 13.3258 80.0074 16.2641 80.0074Z" fill="#4285F4"/>
<path d="M71.3066 80.0074H83.7359C86.6832 80.0074 89.0625 77.6191 89.0625 74.6809V36.5059L71.3066 49.8227" fill="#34A853"/>
<path d="M71.3066 26.7402V49.8226L89.0625 36.5062V29.4031C89.0625 22.816 81.543 19.0605 76.2785 23.0113" fill="#FBBC04"/>
<path d="M28.6934 49.8227V26.7406L50 42.7199L71.3066 26.7399V49.8223L50 65.8028" fill="#EA4335"/>
<path d="M10.9375 29.4035V36.5059L28.693 49.8227V26.7407L23.7215 23.0117C18.448 19.061 10.9375 22.8164 10.9375 29.4035Z" fill="#C5221F"/>
</g>
<defs>
<clipPath id="clip0_49_188">
<rect width="100" height="100" fill="white" transform="translate(0 0.695312)"/>
</clipPath>
</defs>
</svg>
