<svg width="100" height="101" viewBox="0 0 100 101" fill="none" xmlns="http://www.w3.org/2000/svg">
<g clip-path="url(#clip0_49_182)">
<path d="M76.5625 0.695312H23.4375C10.4933 0.695312 0 11.1886 0 24.1328V77.2578C0 90.202 10.4933 100.695 23.4375 100.695H76.5625C89.5067 100.695 100 90.202 100 77.2578V24.1328C100 11.1886 89.5067 0.695312 76.5625 0.695312Z" fill="url(#paint0_radial_49_182)"/>
<path d="M76.5625 0.695312H23.4375C10.4933 0.695312 0 11.1886 0 24.1328V77.2578C0 90.202 10.4933 100.695 23.4375 100.695H76.5625C89.5067 100.695 100 90.202 100 77.2578V24.1328C100 11.1886 89.5067 0.695312 76.5625 0.695312Z" fill="url(#paint1_radial_49_182)"/>
<path d="M50.0035 11.6328C39.3949 11.6328 38.0633 11.6793 33.8969 11.8688C29.7383 12.0594 26.8996 12.7176 24.416 13.6836C21.8465 14.6812 19.6672 16.016 17.4961 18.1879C15.323 20.3594 13.9883 22.5387 12.9875 25.107C12.0188 27.5914 11.3598 30.4312 11.1727 34.5879C10.9863 38.7547 10.9375 40.0867 10.9375 50.6957C10.9375 61.3047 10.9844 62.632 11.1734 66.7984C11.3648 70.957 12.023 73.7957 12.9883 76.2793C13.9867 78.8488 15.3215 81.0281 17.4934 83.1992C19.6641 85.3723 21.8434 86.7102 24.4109 87.7078C26.8965 88.6738 29.7355 89.332 33.8934 89.5227C38.0602 89.7121 39.3906 89.7586 49.9988 89.7586C60.6086 89.7586 61.9359 89.7121 66.1023 89.5227C70.2609 89.332 73.1027 88.6738 75.5883 87.7078C78.1566 86.7102 80.3328 85.3723 82.5031 83.1992C84.6762 81.0281 86.0105 78.8488 87.0117 76.2805C87.9719 73.7957 88.6312 70.9562 88.8266 66.7992C89.0137 62.6328 89.0625 61.3047 89.0625 50.6957C89.0625 40.0867 89.0137 38.7555 88.8266 34.5887C88.6312 30.4301 87.9719 27.5918 87.0117 25.1082C86.0105 22.5387 84.6762 20.3594 82.5031 18.1879C80.3305 16.0152 78.1574 14.6805 75.5859 13.684C73.0957 12.7176 70.2555 12.059 66.0969 11.8688C61.9301 11.6793 60.6035 11.6328 49.9914 11.6328H50.0035ZM46.4992 18.6723C47.5395 18.6707 48.7 18.6723 50.0035 18.6723C60.4336 18.6723 61.6695 18.7098 65.7883 18.8969C69.5969 19.0711 71.6641 19.7074 73.041 20.2422C74.8641 20.95 76.1637 21.7965 77.5301 23.1641C78.8973 24.5313 79.7434 25.8332 80.4531 27.6562C80.9879 29.0312 81.625 31.0984 81.7984 34.907C81.9855 39.025 82.0262 40.2617 82.0262 50.6867C82.0262 61.1117 81.9855 62.3488 81.7984 66.4664C81.6242 70.275 80.9879 72.3422 80.4531 73.7176C79.7453 75.5406 78.8973 76.8387 77.5301 78.2051C76.1629 79.5723 74.8648 80.4184 73.041 81.1266C71.6656 81.6637 69.5969 82.2984 65.7883 82.4727C61.6703 82.6598 60.4336 82.7004 50.0035 82.7004C39.573 82.7004 38.3367 82.6598 34.2191 82.4727C30.4105 82.2969 28.3434 81.6605 26.9652 81.1258C25.1426 80.4176 23.8402 79.5715 22.473 78.2043C21.1059 76.8371 20.2598 75.5383 19.55 73.7145C19.0152 72.3391 18.3781 70.2719 18.2047 66.4633C18.0176 62.3453 17.9801 61.1086 17.9801 50.677C17.9801 40.2453 18.0176 39.0152 18.2047 34.8973C18.3789 31.0887 19.0152 29.0215 19.55 27.6445C20.2582 25.8215 21.1059 24.5195 22.4734 23.1523C23.841 21.7852 25.1426 20.9387 26.9656 20.2293C28.3426 19.6922 30.4105 19.0574 34.2191 18.8824C37.8227 18.7195 39.2191 18.6707 46.4992 18.6625V18.6723ZM70.8551 25.1582C68.2672 25.1582 66.1676 27.2559 66.1676 29.8441C66.1676 32.432 68.2672 34.5316 70.8551 34.5316C73.443 34.5316 75.5426 32.432 75.5426 29.8441C75.5426 27.2563 73.443 25.1566 70.8551 25.1566V25.1582ZM50.0035 30.6352C38.9254 30.6352 29.9434 39.6172 29.9434 50.6957C29.9434 61.7742 38.9254 70.752 50.0035 70.752C61.082 70.752 70.0609 61.7742 70.0609 50.6957C70.0609 39.6176 61.0813 30.6352 50.0027 30.6352H50.0035ZM50.0035 37.6746C57.1945 37.6746 63.0246 43.5039 63.0246 50.6957C63.0246 57.8867 57.1945 63.7168 50.0035 63.7168C42.8125 63.7168 36.9828 57.8867 36.9828 50.6957C36.9828 43.5039 42.8121 37.6746 50.0035 37.6746Z" fill="white"/>
</g>
<defs>
<radialGradient id="paint0_radial_49_182" cx="0" cy="0" r="1" gradientUnits="userSpaceOnUse" gradientTransform="translate(26.5625 108.397) rotate(-90) scale(99.1074 92.1777)">
<stop stop-color="#FFDD55"/>
<stop offset="0.1" stop-color="#FFDD55"/>
<stop offset="0.5" stop-color="#FF543E"/>
<stop offset="1" stop-color="#C837AB"/>
</radialGradient>
<radialGradient id="paint1_radial_49_182" cx="0" cy="0" r="1" gradientUnits="userSpaceOnUse" gradientTransform="translate(-16.7504 7.89883) rotate(78.681) scale(44.3016 182.612)">
<stop stop-color="#3771C8"/>
<stop offset="0.128" stop-color="#3771C8"/>
<stop offset="1" stop-color="#6600FF" stop-opacity="0"/>
</radialGradient>
<clipPath id="clip0_49_182">
<rect width="100" height="100" fill="white" transform="translate(0 0.695312)"/>
</clipPath>
</defs>
</svg>
