<svg width="100" height="101" viewBox="0 0 100 101" fill="none" xmlns="http://www.w3.org/2000/svg">
<g clip-path="url(#clip0_49_168)">
<rect y="0.695312" width="100" height="100" rx="24" fill="#0A66C2"/>
<path d="M76.5625 0.695312H23.4375C10.4933 0.695312 0 11.1886 0 24.1328V77.2578C0 90.202 10.4933 100.695 23.4375 100.695H76.5625C89.5067 100.695 100 90.202 100 77.2578V24.1328C100 11.1886 89.5067 0.695312 76.5625 0.695312Z" fill="white"/>
<path d="M76.5625 0.695312H23.4375C10.4933 0.695312 0 11.1886 0 24.1328V77.2578C0 90.202 10.4933 100.695 23.4375 100.695H76.5625C89.5067 100.695 100 90.202 100 77.2578V24.1328C100 11.1886 89.5067 0.695312 76.5625 0.695312Z" fill="#0A66C2"/>
<path d="M72.1543 85.7285H83.5879C84.0022 85.7285 84.3996 85.5639 84.6926 85.271C84.9856 84.9781 85.1503 84.5807 85.1504 84.1664L85.1562 60.0094C85.1562 47.3832 82.4355 37.6781 67.6805 37.6781C62.0715 37.4695 56.782 40.3609 53.9277 45.1891C53.9138 45.2125 53.8925 45.2308 53.8672 45.241C53.842 45.2513 53.814 45.2529 53.7877 45.2458C53.7613 45.2387 53.738 45.2231 53.7214 45.2015C53.7047 45.1799 53.6955 45.1535 53.6953 45.1262V40.4063C53.6953 39.9919 53.5307 39.5944 53.2377 39.3014C52.9446 39.0084 52.5472 38.8438 52.1328 38.8438H41.2824C40.868 38.8438 40.4706 39.0084 40.1776 39.3014C39.8845 39.5944 39.7199 39.9919 39.7199 40.4063V84.1641C39.7199 84.5785 39.8845 84.9759 40.1776 85.2689C40.4706 85.5619 40.868 85.7266 41.2824 85.7266H52.7152C53.1296 85.7266 53.5271 85.5619 53.8201 85.2689C54.1131 84.9759 54.2777 84.5785 54.2777 84.1641V62.534C54.2777 56.418 55.4379 50.4949 63.0203 50.4949C70.4949 50.4949 70.5918 57.4934 70.5918 62.9301V84.166C70.5918 84.5804 70.7564 84.9778 71.0494 85.2709C71.3425 85.5639 71.7399 85.7285 72.1543 85.7285ZM14.8438 23.9875C14.8438 28.6219 18.659 32.4352 23.2937 32.4352C27.9273 32.4348 31.7402 28.6191 31.7402 23.9855C31.7395 19.352 27.9262 15.5391 23.2922 15.5391C18.657 15.5391 14.8438 19.3531 14.8438 23.9875ZM17.5621 85.7285H29.0102C29.4246 85.7285 29.822 85.5639 30.115 85.2709C30.408 84.9778 30.5727 84.5804 30.5727 84.166V40.4063C30.5727 39.9919 30.408 39.5944 30.115 39.3014C29.822 39.0084 29.4246 38.8438 29.0102 38.8438H17.5621C17.1477 38.8438 16.7503 39.0084 16.4573 39.3014C16.1642 39.5944 15.9996 39.9919 15.9996 40.4063V84.166C15.9996 84.5804 16.1642 84.9778 16.4573 85.2709C16.7503 85.5639 17.1477 85.7285 17.5621 85.7285Z" fill="white"/>
</g>
<defs>
<clipPath id="clip0_49_168">
<rect y="0.695312" width="100" height="100" rx="24" fill="white"/>
</clipPath>
</defs>
</svg>
